<svg version="1.1" xmlns="http://www.w3.org/2000/svg" viewBox="0 0 1999.3036503311218 4716.508557270013" width="3998.6073006622437" height="9433.017114540025">
  <!-- svg-source:excalidraw -->
  
  <defs>
    <style class="style-fonts">
      @font-face {
        font-family: "Virgil";
        src: url("https://excalidraw.com/Virgil.woff2");
      }
      @font-face {
        font-family: "Cascadia";
        src: url("https://excalidraw.com/Cascadia.woff2");
      }
      @font-face {
        font-family: "Assistant";
        src: url("https://excalidraw.com/Assistant-Regular.woff2");
      }
    </style>
    
  </defs>
  <rect x="0" y="0" width="1999.3036503311218" height="4716.508557270013" fill="#ffffff"></rect><g transform="translate(63.24794641829453 10) rotate(0 211.86666870117188 22.5)"><text x="0" y="31.536" font-family="Virgil, Segoe UI Emoji" font-size="36px" fill="#1971c2" text-anchor="start" style="white-space: pre;" direction="ltr" dominant-baseline="alphabetic">Microservices : Quiz App</text></g><g stroke-linecap="round" transform="translate(11 288.5065112808324) rotate(0 131 111.5)"><path d="M32 0 C98.58 0, 165.17 0, 230 0 M32 0 C76.29 0, 120.58 0, 230 0 M230 0 C251.33 0, 262 10.67, 262 32 M230 0 C251.33 0, 262 10.67, 262 32 M262 32 C262 93.23, 262 154.46, 262 191 M262 32 C262 89.2, 262 146.4, 262 191 M262 191 C262 212.33, 251.33 223, 230 223 M262 191 C262 212.33, 251.33 223, 230 223 M230 223 C172.66 223, 115.31 223, 32 223 M230 223 C187.26 223, 144.51 223, 32 223 M32 223 C10.67 223, 0 212.33, 0 191 M32 223 C10.67 223, 0 212.33, 0 191 M0 191 C0 136.33, 0 81.66, 0 32 M0 191 C0 130.65, 0 70.29, 0 32 M0 32 C0 10.67, 10.67 0, 32 0 M0 32 C0 10.67, 10.67 0, 32 0" stroke="#1e1e1e" stroke-width="1" fill="none"></path></g><g transform="translate(77.78333282470703 377.5065112808324) rotate(0 64.21666717529297 22.5)"><text x="64.21666717529297" y="31.536" font-family="Virgil, Segoe UI Emoji" font-size="36px" fill="#1e1e1e" text-anchor="middle" style="white-space: pre;" direction="ltr" dominant-baseline="alphabetic">quizzes</text></g><g transform="translate(10 235.5065112808324) rotate(0 135.23333740234375 22.5)"><text x="0" y="31.536" font-family="Virgil, Segoe UI Emoji" font-size="36px" fill="#1e1e1e" text-anchor="start" style="white-space: pre;" direction="ltr" dominant-baseline="alphabetic">QUIZ-SERVICE</text></g><g stroke-linecap="round" transform="translate(675.0783491252937 286.47115415152604) rotate(0 131 111.5)"><path d="M32 0 C95.42 0, 158.85 0, 230 0 M32 0 C109.46 0, 186.92 0, 230 0 M230 0 C251.33 0, 262 10.67, 262 32 M230 0 C251.33 0, 262 10.67, 262 32 M262 32 C262 66.82, 262 101.65, 262 191 M262 32 C262 72.6, 262 113.2, 262 191 M262 191 C262 212.33, 251.33 223, 230 223 M262 191 C262 212.33, 251.33 223, 230 223 M230 223 C183.66 223, 137.32 223, 32 223 M230 223 C189.03 223, 148.05 223, 32 223 M32 223 C10.67 223, 0 212.33, 0 191 M32 223 C10.67 223, 0 212.33, 0 191 M0 191 C0 135.19, 0 79.39, 0 32 M0 191 C0 154.36, 0 117.72, 0 32 M0 32 C0 10.67, 10.67 0, 32 0 M0 32 C0 10.67, 10.67 0, 32 0" stroke="#1e1e1e" stroke-width="1" fill="none"></path></g><g transform="translate(674.0783491252937 233.47115415152604) rotate(0 183.10000610351562 22.5)"><text x="0" y="31.536" font-family="Virgil, Segoe UI Emoji" font-size="36px" fill="#1e1e1e" text-anchor="start" style="white-space: pre;" direction="ltr" dominant-baseline="alphabetic">QUESTION-SERVICE</text></g><g stroke-linecap="round" transform="translate(1264.0178802337814 304.7391447908712) rotate(0 131 111.5)"><path d="M32 0 C85.4 0, 138.8 0, 230 0 M32 0 C104.74 0, 177.47 0, 230 0 M230 0 C251.33 0, 262 10.67, 262 32 M230 0 C251.33 0, 262 10.67, 262 32 M262 32 C262 65.62, 262 99.23, 262 191 M262 32 C262 78.34, 262 124.68, 262 191 M262 191 C262 212.33, 251.33 223, 230 223 M262 191 C262 212.33, 251.33 223, 230 223 M230 223 C162.67 223, 95.35 223, 32 223 M230 223 C154.09 223, 78.18 223, 32 223 M32 223 C10.67 223, 0 212.33, 0 191 M32 223 C10.67 223, 0 212.33, 0 191 M0 191 C0 152.27, 0 113.53, 0 32 M0 191 C0 134.74, 0 78.49, 0 32 M0 32 C0 10.67, 10.67 0, 32 0 M0 32 C0 10.67, 10.67 0, 32 0" stroke="#1e1e1e" stroke-width="1" fill="none"></path></g><g transform="translate(1263.0178802337814 251.7391447908712) rotate(0 133.6666717529297 22.5)"><text x="0" y="31.536" font-family="Virgil, Segoe UI Emoji" font-size="36px" fill="#1e1e1e" text-anchor="start" style="white-space: pre;" direction="ltr" dominant-baseline="alphabetic">USER-SERVICE</text></g><g stroke-linecap="round"><g transform="translate(137.0178802337814 586.7391447908713) rotate(0 20.5 -29.616316755019398)"><path d="M0 0 C6.83 -1.67, 36.83 -0.13, 41 -10 C45.17 -19.87, 27.68 -51.03, 25.02 -59.23 M0 0 C6.83 -1.67, 36.83 -0.13, 41 -10 C45.17 -19.87, 27.68 -51.03, 25.02 -59.23" stroke="#1e1e1e" stroke-width="1" fill="none"></path></g><g transform="translate(137.0178802337814 586.7391447908713) rotate(0 20.5 -29.616316755019398)"><path d="M42.26 -41.13 C37.72 -45.9, 33.18 -50.66, 25.02 -59.23 M42.26 -41.13 C35.54 -48.19, 28.81 -55.25, 25.02 -59.23" stroke="#1e1e1e" stroke-width="1" fill="none"></path></g><g transform="translate(137.0178802337814 586.7391447908713) rotate(0 20.5 -29.616316755019398)"><path d="M26.59 -34.28 C26.18 -40.85, 25.76 -47.42, 25.02 -59.23 M26.59 -34.28 C25.98 -44.01, 25.36 -53.75, 25.02 -59.23" stroke="#1e1e1e" stroke-width="1" fill="none"></path></g></g><mask></mask><g stroke-linecap="round"><g transform="translate(159.0178802337814 609.7391447908713) rotate(0 30.5 -40.6163167550194)"><path d="M0 0 C10.17 -3.5, 53.23 -7.46, 61 -21 C68.77 -34.54, 49.01 -71.19, 46.61 -81.23 M0 0 C10.17 -3.5, 53.23 -7.46, 61 -21 C68.77 -34.54, 49.01 -71.19, 46.61 -81.23" stroke="#1e1e1e" stroke-width="1" fill="none"></path></g><g transform="translate(159.0178802337814 609.7391447908713) rotate(0 30.5 -40.6163167550194)"><path d="M62.92 -62.29 C56.96 -69.21, 51 -76.13, 46.61 -81.23 M62.92 -62.29 C56.97 -69.2, 51.02 -76.11, 46.61 -81.23" stroke="#1e1e1e" stroke-width="1" fill="none"></path></g><g transform="translate(159.0178802337814 609.7391447908713) rotate(0 30.5 -40.6163167550194)"><path d="M46.93 -56.23 C46.81 -65.37, 46.69 -74.5, 46.61 -81.23 M46.93 -56.23 C46.81 -65.35, 46.69 -74.47, 46.61 -81.23" stroke="#1e1e1e" stroke-width="1" fill="none"></path></g></g><mask></mask><g stroke-linecap="round"><g transform="translate(693.0178802337814 587.7391447908713) rotate(0 29 -28.5)"><path d="M0 0 C6.83 -1.67, 31.33 -0.5, 41 -10 C50.67 -19.5, 55.17 -49.17, 58 -57 M0 0 C6.83 -1.67, 31.33 -0.5, 41 -10 C50.67 -19.5, 55.17 -49.17, 58 -57" stroke="#1e1e1e" stroke-width="1" fill="none"></path></g><g transform="translate(693.0178802337814 587.7391447908713) rotate(0 29 -28.5)"><path d="M60.32 -32.12 C59.62 -39.57, 58.93 -47.03, 58 -57 M60.32 -32.12 C59.77 -37.97, 59.23 -43.82, 58 -57" stroke="#1e1e1e" stroke-width="1" fill="none"></path></g><g transform="translate(693.0178802337814 587.7391447908713) rotate(0 29 -28.5)"><path d="M43.78 -36.45 C48.04 -42.61, 52.3 -48.76, 58 -57 M43.78 -36.45 C47.13 -41.28, 50.47 -46.12, 58 -57" stroke="#1e1e1e" stroke-width="1" fill="none"></path></g></g><mask></mask><g stroke-linecap="round"><g transform="translate(715.0178802337814 610.7391447908713) rotate(0 43 -39.5)"><path d="M0 0 C10.17 -3.5, 46.67 -7.83, 61 -21 C75.33 -34.17, 81.83 -69.33, 86 -79 M0 0 C10.17 -3.5, 46.67 -7.83, 61 -21 C75.33 -34.17, 81.83 -69.33, 86 -79" stroke="#1e1e1e" stroke-width="1" fill="none"></path></g><g transform="translate(715.0178802337814 610.7391447908713) rotate(0 43 -39.5)"><path d="M87.06 -54.02 C86.7 -62.45, 86.34 -70.88, 86 -79 M87.06 -54.02 C86.68 -62.9, 86.31 -71.78, 86 -79" stroke="#1e1e1e" stroke-width="1" fill="none"></path></g><g transform="translate(715.0178802337814 610.7391447908713) rotate(0 43 -39.5)"><path d="M70.76 -59.18 C75.9 -65.87, 81.04 -72.56, 86 -79 M70.76 -59.18 C76.17 -66.23, 81.59 -73.27, 86 -79" stroke="#1e1e1e" stroke-width="1" fill="none"></path></g></g><mask></mask><g stroke-linecap="round"><g transform="translate(1325.0178802337814 609.7391447908713) rotate(0 29 -28.5)"><path d="M0 0 C6.83 -1.67, 31.33 -0.5, 41 -10 C50.67 -19.5, 55.17 -49.17, 58 -57 M0 0 C6.83 -1.67, 31.33 -0.5, 41 -10 C50.67 -19.5, 55.17 -49.17, 58 -57" stroke="#1e1e1e" stroke-width="1" fill="none"></path></g><g transform="translate(1325.0178802337814 609.7391447908713) rotate(0 29 -28.5)"><path d="M60.32 -32.12 C59.46 -41.27, 58.61 -50.41, 58 -57 M60.32 -32.12 C59.69 -38.84, 59.06 -45.57, 58 -57" stroke="#1e1e1e" stroke-width="1" fill="none"></path></g><g transform="translate(1325.0178802337814 609.7391447908713) rotate(0 29 -28.5)"><path d="M43.78 -36.45 C49.01 -44.01, 54.24 -51.56, 58 -57 M43.78 -36.45 C47.62 -42.01, 51.47 -47.56, 58 -57" stroke="#1e1e1e" stroke-width="1" fill="none"></path></g></g><mask></mask><g stroke-linecap="round"><g transform="translate(1347.0178802337814 632.7391447908713) rotate(0 43 -39.5)"><path d="M0 0 C10.17 -3.5, 46.67 -7.83, 61 -21 C75.33 -34.17, 81.83 -69.33, 86 -79 M0 0 C10.17 -3.5, 46.67 -7.83, 61 -21 C75.33 -34.17, 81.83 -69.33, 86 -79" stroke="#1e1e1e" stroke-width="1" fill="none"></path></g><g transform="translate(1347.0178802337814 632.7391447908713) rotate(0 43 -39.5)"><path d="M87.06 -54.02 C86.64 -63.91, 86.22 -73.8, 86 -79 M87.06 -54.02 C86.82 -59.6, 86.59 -65.18, 86 -79" stroke="#1e1e1e" stroke-width="1" fill="none"></path></g><g transform="translate(1347.0178802337814 632.7391447908713) rotate(0 43 -39.5)"><path d="M70.76 -59.18 C76.79 -67.03, 82.83 -74.88, 86 -79 M70.76 -59.18 C74.16 -63.61, 77.57 -68.04, 86 -79" stroke="#1e1e1e" stroke-width="1" fill="none"></path></g></g><mask></mask><g stroke-linecap="round" transform="translate(676.7670349189816 865.7463911676828) rotate(0 118.65942028985512 100.99637681159425)"><path d="M32 0 C94.39 0, 156.77 0, 205.32 0 M32 0 C77.74 0, 123.47 0, 205.32 0 M205.32 0 C226.65 0, 237.32 10.67, 237.32 32 M205.32 0 C226.65 0, 237.32 10.67, 237.32 32 M237.32 32 C237.32 74.16, 237.32 116.31, 237.32 169.99 M237.32 32 C237.32 79.75, 237.32 127.5, 237.32 169.99 M237.32 169.99 C237.32 191.33, 226.65 201.99, 205.32 201.99 M237.32 169.99 C237.32 191.33, 226.65 201.99, 205.32 201.99 M205.32 201.99 C153.18 201.99, 101.05 201.99, 32 201.99 M205.32 201.99 C144.32 201.99, 83.31 201.99, 32 201.99 M32 201.99 C10.67 201.99, 0 191.33, 0 169.99 M32 201.99 C10.67 201.99, 0 191.33, 0 169.99 M0 169.99 C0 120.12, 0 70.25, 0 32 M0 169.99 C0 128.04, 0 86.08, 0 32 M0 32 C0 10.67, 10.67 0, 32 0 M0 32 C0 10.67, 10.67 0, 32 0" stroke="#1e1e1e" stroke-width="1" fill="none"></path></g><g transform="translate(675.8612378175321 817.7391447908713) rotate(0 152.3399767668351 20.380434782608745)"><text x="0" y="28.565217391304348" font-family="Virgil, Segoe UI Emoji" font-size="32.608695652173914px" fill="#1e1e1e" text-anchor="start" style="white-space: pre;" direction="ltr" dominant-baseline="alphabetic">SERVICE RESITRY</text></g><g transform="translate(670.3195316631575 930.912257328494) rotate(0 181.3333282470703 41.71904559219695)"><text x="0" y="19.491138100674394" font-family="Virgil, Segoe UI Emoji" font-size="22.250157649171683px" fill="#1e1e1e" text-anchor="start" style="white-space: pre;" direction="ltr" dominant-baseline="alphabetic">INFORMATION of other services</text><text x="0" y="47.303835162138995" font-family="Virgil, Segoe UI Emoji" font-size="22.250157649171683px" fill="#1e1e1e" text-anchor="start" style="white-space: pre;" direction="ltr" dominant-baseline="alphabetic">LOAD BALANCING</text><text x="0" y="75.1165322236036" font-family="Virgil, Segoe UI Emoji" font-size="22.250157649171683px" fill="#1e1e1e" text-anchor="start" style="white-space: pre;" direction="ltr" dominant-baseline="alphabetic">eureka server</text></g><g stroke-linecap="round"><g transform="translate(287.12333352743906 525.6674240364678) rotate(0 226.44727335317117 135.53586037720174)"><path d="M0 0 C63.15 23.68, 303.41 96.89, 378.89 142.07 C454.38 187.25, 440.56 249.57, 452.89 271.07 M0 0 C63.15 23.68, 303.41 96.89, 378.89 142.07 C454.38 187.25, 440.56 249.57, 452.89 271.07" stroke="#1e1e1e" stroke-width="1" fill="none"></path></g><g transform="translate(287.12333352743906 525.6674240364678) rotate(0 226.44727335317117 135.53586037720174)"><path d="M438.93 250.33 C443.33 256.87, 447.73 263.4, 452.89 271.07 M438.93 250.33 C442.99 256.36, 447.04 262.38, 452.89 271.07" stroke="#1e1e1e" stroke-width="1" fill="none"></path></g><g transform="translate(287.12333352743906 525.6674240364678) rotate(0 226.44727335317117 135.53586037720174)"><path d="M455.53 246.21 C454.7 254.04, 453.87 261.87, 452.89 271.07 M455.53 246.21 C454.76 253.43, 454 260.65, 452.89 271.07" stroke="#1e1e1e" stroke-width="1" fill="none"></path></g></g><mask></mask><g stroke-linecap="round"><g transform="translate(878.8345142839717 525.471154151526) rotate(0 -32.90831702509513 123.13399531967258)"><path d="M0 0 C-6.3 26.21, -26.85 116.22, -37.82 157.27 C-48.79 198.31, -61.15 231.43, -65.82 246.27 M0 0 C-6.3 26.21, -26.85 116.22, -37.82 157.27 C-48.79 198.31, -61.15 231.43, -65.82 246.27" stroke="#1e1e1e" stroke-width="1" fill="none"></path></g><g transform="translate(878.8345142839717 525.471154151526) rotate(0 -32.90831702509513 123.13399531967258)"><path d="M-66.46 221.28 C-66.33 226.4, -66.2 231.52, -65.82 246.27 M-66.46 221.28 C-66.21 230.95, -65.96 240.62, -65.82 246.27" stroke="#1e1e1e" stroke-width="1" fill="none"></path></g><g transform="translate(878.8345142839717 525.471154151526) rotate(0 -32.90831702509513 123.13399531967258)"><path d="M-50.25 226.71 C-53.44 230.72, -56.63 234.72, -65.82 246.27 M-50.25 226.71 C-56.27 234.28, -62.3 241.84, -65.82 246.27" stroke="#1e1e1e" stroke-width="1" fill="none"></path></g></g><mask></mask><g stroke-linecap="round"><g transform="translate(1256.0178802337814 523.7391447908713) rotate(0 -183.5 133.5)"><path d="M0 0 C-39 12, -172.83 27.5, -234 72 C-295.17 116.5, -344.83 234.5, -367 267 M0 0 C-39 12, -172.83 27.5, -234 72 C-295.17 116.5, -344.83 234.5, -367 267" stroke="#1e1e1e" stroke-width="1" fill="none"></path></g><g transform="translate(1256.0178802337814 523.7391447908713) rotate(0 -183.5 133.5)"><path d="M-362.97 242.33 C-364.39 251.04, -365.82 259.76, -367 267 M-362.97 242.33 C-364.46 251.44, -365.95 260.55, -367 267" stroke="#1e1e1e" stroke-width="1" fill="none"></path></g><g transform="translate(1256.0178802337814 523.7391447908713) rotate(0 -183.5 133.5)"><path d="M-348.05 250.69 C-354.74 256.45, -361.44 262.21, -367 267 M-348.05 250.69 C-355.05 256.72, -362.05 262.74, -367 267" stroke="#1e1e1e" stroke-width="1" fill="none"></path></g></g><mask></mask><g mask="url(#mask-dXi2k6e1TUK6BOoP6YEKn)" stroke-linecap="round"><g transform="translate(258.22313114684334 524.9319292364189) rotate(0 -50.205250913061946 156.6163167550194)"><path d="M0 0 C8.97 15.04, 79.5 38.03, 53.79 90.23 C28.09 142.44, -119.54 276.07, -154.21 313.23 M0 0 C8.97 15.04, 79.5 38.03, 53.79 90.23 C28.09 142.44, -119.54 276.07, -154.21 313.23" stroke="#1e1e1e" stroke-width="1" fill="none"></path></g><g transform="translate(258.22313114684334 524.9319292364189) rotate(0 -50.205250913061946 156.6163167550194)"><path d="M-143.5 290.64 C-145.73 295.34, -147.95 300.04, -154.21 313.23 M-143.5 290.64 C-146.31 296.56, -149.11 302.48, -154.21 313.23" stroke="#1e1e1e" stroke-width="1" fill="none"></path></g><g transform="translate(258.22313114684334 524.9319292364189) rotate(0 -50.205250913061946 156.6163167550194)"><path d="M-131.48 302.8 C-136.21 304.97, -140.94 307.14, -154.21 313.23 M-131.48 302.8 C-137.44 305.54, -143.39 308.27, -154.21 313.23" stroke="#1e1e1e" stroke-width="1" fill="none"></path></g></g><mask id="mask-dXi2k6e1TUK6BOoP6YEKn"><rect x="0" y="0" fill="#fff" width="566.2231311468433" height="938.1645627464577"></rect><rect x="170.15121153260952" y="592.6645627464577" fill="#000" width="283.73333740234375" height="45" opacity="1"></rect></mask><g transform="translate(170.15121153260952 592.6645627464577) rotate(0 40.66861362023724 88.8836832449806)"><text x="141.86666870117188" y="31.536" font-family="Virgil, Segoe UI Emoji" font-size="36px" fill="#1e1e1e" text-anchor="middle" style="white-space: pre;" direction="ltr" dominant-baseline="alphabetic">GET ALL QUIZ</text></g><g stroke-linecap="round"><g transform="translate(284 334.9648408092866) rotate(0 192.03917456264685 -1.1110247386213814)"><path d="M0 0 C64.01 -0.37, 320.07 -1.85, 384.08 -2.22 M0 0 C64.01 -0.37, 320.07 -1.85, 384.08 -2.22" stroke="#1e1e1e" stroke-width="1" fill="none"></path></g><g transform="translate(284 334.9648408092866) rotate(0 192.03917456264685 -1.1110247386213814)"><path d="M360.64 6.46 C368.27 3.63, 375.91 0.81, 384.08 -2.22 M360.64 6.46 C369.52 3.17, 378.41 -0.12, 384.08 -2.22" stroke="#1e1e1e" stroke-width="1" fill="none"></path></g><g transform="translate(284 334.9648408092866) rotate(0 192.03917456264685 -1.1110247386213814)"><path d="M360.54 -10.64 C368.21 -7.9, 375.87 -5.15, 384.08 -2.22 M360.54 -10.64 C369.46 -7.45, 378.39 -4.26, 384.08 -2.22" stroke="#1e1e1e" stroke-width="1" fill="none"></path></g></g><mask></mask><g stroke-linecap="round"><g transform="translate(670.0783491252937 408.5457003590598) rotate(0 -198.03917456264685 3.0568375341410956)"><path d="M0 0 C-66.01 1.02, -330.07 5.09, -396.08 6.11 M0 0 C-66.01 1.02, -330.07 5.09, -396.08 6.11" stroke="#1e1e1e" stroke-width="1" fill="none"></path></g><g transform="translate(670.0783491252937 408.5457003590598) rotate(0 -198.03917456264685 3.0568375341410956)"><path d="M-372.72 -2.8 C-378.42 -0.62, -384.12 1.55, -396.08 6.11 M-372.72 -2.8 C-378.82 -0.47, -384.92 1.86, -396.08 6.11" stroke="#1e1e1e" stroke-width="1" fill="none"></path></g><g transform="translate(670.0783491252937 408.5457003590598) rotate(0 -198.03917456264685 3.0568375341410956)"><path d="M-372.46 14.3 C-378.22 12.3, -383.98 10.31, -396.08 6.11 M-372.46 14.3 C-378.63 12.16, -384.8 10.02, -396.08 6.11" stroke="#1e1e1e" stroke-width="1" fill="none"></path></g></g><mask></mask><g transform="translate(405.5994640088785 249.0585267440137) rotate(0 118.6666641235351 68.41186673301672)"><text x="0" y="15.981012068832712" font-family="Virgil, Segoe UI Emoji" font-size="18.2431644621378px" fill="#1e1e1e" text-anchor="start" style="white-space: pre;" direction="ltr" dominant-baseline="alphabetic">get questions</text><text x="0" y="38.78496764650496" font-family="Virgil, Segoe UI Emoji" font-size="18.2431644621378px" fill="#1e1e1e" text-anchor="start" style="white-space: pre;" direction="ltr" dominant-baseline="alphabetic">of quiz,</text><text x="0" y="61.58892322417721" font-family="Virgil, Segoe UI Emoji" font-size="18.2431644621378px" fill="#1e1e1e" text-anchor="start" style="white-space: pre;" direction="ltr" dominant-baseline="alphabetic">if question service is down</text><text x="0" y="84.39287880184946" font-family="Virgil, Segoe UI Emoji" font-size="18.2431644621378px" fill="#1e1e1e" text-anchor="start" style="white-space: pre;" direction="ltr" dominant-baseline="alphabetic">it will call falback emthod</text><text x="0" y="107.1968343795217" font-family="Virgil, Segoe UI Emoji" font-size="18.2431644621378px" fill="#1e1e1e" text-anchor="start" style="white-space: pre;" direction="ltr" dominant-baseline="alphabetic">implemented </text><text x="0" y="130.00078995719394" font-family="Virgil, Segoe UI Emoji" font-size="18.2431644621378px" fill="#1e1e1e" text-anchor="start" style="white-space: pre;" direction="ltr" dominant-baseline="alphabetic">using circutbreakers</text></g><g stroke-linecap="round" transform="translate(212.25121763612515 1279.9891447908713) rotate(0 588 95)"><path d="M32 0 C288.51 0, 545.02 0, 1144 0 M32 0 C337.03 0, 642.06 0, 1144 0 M1144 0 C1165.33 0, 1176 10.67, 1176 32 M1144 0 C1165.33 0, 1176 10.67, 1176 32 M1176 32 C1176 67.28, 1176 102.56, 1176 158 M1176 32 C1176 77.99, 1176 123.99, 1176 158 M1176 158 C1176 179.33, 1165.33 190, 1144 190 M1176 158 C1176 179.33, 1165.33 190, 1144 190 M1144 190 C791.5 190, 439 190, 32 190 M1144 190 C764.56 190, 385.12 190, 32 190 M32 190 C10.67 190, 0 179.33, 0 158 M32 190 C10.67 190, 0 179.33, 0 158 M0 158 C0 132.31, 0 106.63, 0 32 M0 158 C0 132.54, 0 107.08, 0 32 M0 32 C0 10.67, 10.67 0, 32 0 M0 32 C0 10.67, 10.67 0, 32 0" stroke="#1e1e1e" stroke-width="1" fill="none"></path></g><g transform="translate(659.2512176361251 1366.9891447908713) rotate(0 172.53334045410156 45)"><text x="0" y="31.536" font-family="Virgil, Segoe UI Emoji" font-size="36px" fill="#1e1e1e" text-anchor="start" style="white-space: pre;" direction="ltr" dominant-baseline="alphabetic">API Gateway</text><text x="0" y="76.536" font-family="Virgil, Segoe UI Emoji" font-size="36px" fill="#1e1e1e" text-anchor="start" style="white-space: pre;" direction="ltr" dominant-baseline="alphabetic">spring cloud gatway</text></g><g mask="url(#mask-Gp5KC_K27bt5dt5dxplQD)" stroke-linecap="round"><g transform="translate(779.0797223401969 1882.4269406481044) rotate(0 1.6784068673473485 -197.21280691329332)"><path d="M0 0 C0.56 -65.74, 2.8 -328.69, 3.36 -394.43 M0 0 C0.56 -65.74, 2.8 -328.69, 3.36 -394.43" stroke="#1e1e1e" stroke-width="1" fill="none"></path></g><g transform="translate(779.0797223401969 1882.4269406481044) rotate(0 1.6784068673473485 -197.21280691329332)"><path d="M11.71 -370.86 C8.46 -380.04, 5.21 -389.21, 3.36 -394.43 M11.71 -370.86 C8.96 -378.61, 6.22 -386.36, 3.36 -394.43" stroke="#1e1e1e" stroke-width="1" fill="none"></path></g><g transform="translate(779.0797223401969 1882.4269406481044) rotate(0 1.6784068673473485 -197.21280691329332)"><path d="M-5.39 -371.01 C-1.99 -380.12, 1.42 -389.24, 3.36 -394.43 M-5.39 -371.01 C-2.52 -378.71, 0.36 -386.41, 3.36 -394.43" stroke="#1e1e1e" stroke-width="1" fill="none"></path></g></g><mask id="mask-Gp5KC_K27bt5dt5dxplQD"><rect x="0" y="0" fill="#fff" width="882.4365360748916" height="2376.852554474691"></rect><rect x="640.2247887534427" y="1662.7141337348112" fill="#000" width="281.0666809082031" height="45" opacity="1"></rect></mask><g transform="translate(640.2247887534427 1662.7141337348112) rotate(0 140.53334045410156 22.499999999999886)"><text x="140.53334045410156" y="31.536" font-family="Virgil, Segoe UI Emoji" font-size="36px" fill="#1e1e1e" text-anchor="middle" style="white-space: pre;" direction="ltr" dominant-baseline="alphabetic">incoming request</text></g><g mask="url(#mask-YK5AmMDkA-BfJpFuKeuuh)" stroke-linecap="round"><g transform="translate(787.4717566769323 1274.843654668426) rotate(0 -226.5849270918688 -311.3444738929015)"><path d="M0 0 C-62.1 -40.56, -297.08 -139.59, -372.61 -243.37 C-448.13 -347.15, -439.74 -559.47, -453.17 -622.69 M0 0 C-62.1 -40.56, -297.08 -139.59, -372.61 -243.37 C-448.13 -347.15, -439.74 -559.47, -453.17 -622.69" stroke="#1e1e1e" stroke-width="1" fill="none"></path></g><g transform="translate(787.4717566769323 1274.843654668426) rotate(0 -226.5849270918688 -311.3444738929015)"><path d="M-442.32 -600.17 C-444.73 -605.18, -447.15 -610.2, -453.17 -622.69 M-442.32 -600.17 C-445.89 -607.57, -449.45 -614.98, -453.17 -622.69" stroke="#1e1e1e" stroke-width="1" fill="none"></path></g><g transform="translate(787.4717566769323 1274.843654668426) rotate(0 -226.5849270918688 -311.3444738929015)"><path d="M-459.33 -598.46 C-457.96 -603.86, -456.59 -609.25, -453.17 -622.69 M-459.33 -598.46 C-457.31 -606.43, -455.28 -614.39, -453.17 -622.69" stroke="#1e1e1e" stroke-width="1" fill="none"></path></g></g><mask id="mask-YK5AmMDkA-BfJpFuKeuuh"><rect x="0" y="0" fill="#fff" width="1340.64161086067" height="1997.5326024542292"></rect><rect x="273.88209472351537" y="1008.9746589030856" fill="#000" width="281.9666748046875" height="45" opacity="1"></rect></mask><g transform="translate(273.88209472351537 1008.9746589030851) rotate(0 287.004734861548 -45.475478127560734)"><text x="140.98333740234375" y="31.536" font-family="Virgil, Segoe UI Emoji" font-size="36px" fill="#1e1e1e" text-anchor="middle" style="white-space: pre;" direction="ltr" dominant-baseline="alphabetic">qet the quizzes</text></g><g stroke-linecap="round"><g transform="translate(305.7689857482927 692.4364716989555) rotate(0 182.10714510716872 291.2035914847353)"><path d="M0 0 C1.4 48.11, -52.31 191.62, 8.39 288.69 C69.09 385.75, 304.91 533.45, 364.21 582.41 M0 0 C1.4 48.11, -52.31 191.62, 8.39 288.69 C69.09 385.75, 304.91 533.45, 364.21 582.41" stroke="#1e1e1e" stroke-width="1" fill="none"></path></g><g transform="translate(305.7689857482927 692.4364716989555) rotate(0 182.10714510716872 291.2035914847353)"><path d="M340.19 575.49 C346.66 577.35, 353.13 579.21, 364.21 582.41 M340.19 575.49 C349.3 578.11, 358.41 580.73, 364.21 582.41" stroke="#1e1e1e" stroke-width="1" fill="none"></path></g><g transform="translate(305.7689857482927 692.4364716989555) rotate(0 182.10714510716872 291.2035914847353)"><path d="M350.26 561.66 C354.02 567.25, 357.77 572.83, 364.21 582.41 M350.26 561.66 C355.55 569.53, 360.84 577.39, 364.21 582.41" stroke="#1e1e1e" stroke-width="1" fill="none"></path></g></g><mask></mask><g stroke-linecap="round"><g transform="translate(930.1363404014428 1479.6092924847817) rotate(0 2.517610301020568 204.7656378163556)"><path d="M0 0 C0.84 68.26, 4.2 341.28, 5.04 409.53 M0 0 C0.84 68.26, 4.2 341.28, 5.04 409.53" stroke="#1e1e1e" stroke-width="1" fill="none"></path></g><g transform="translate(930.1363404014428 1479.6092924847817) rotate(0 2.517610301020568 204.7656378163556)"><path d="M-3.8 386.15 C-1.89 391.21, 0.03 396.28, 5.04 409.53 M-3.8 386.15 C-0.81 394.07, 2.18 401.98, 5.04 409.53" stroke="#1e1e1e" stroke-width="1" fill="none"></path></g><g transform="translate(930.1363404014428 1479.6092924847817) rotate(0 2.517610301020568 204.7656378163556)"><path d="M13.3 385.94 C11.51 391.05, 9.72 396.16, 5.04 409.53 M13.3 385.94 C10.5 393.93, 7.7 401.92, 5.04 409.53" stroke="#1e1e1e" stroke-width="1" fill="none"></path></g></g><mask></mask><g stroke-linecap="round" transform="translate(782.4848671780342 1923.9994332424258) rotate(0 67.58333587646484 55.00346409238523)"><path d="M0 0 C35.06 0.62, 71.23 -0.78, 135.17 0 M0 0 C30.02 -1.58, 59.37 -0.33, 135.17 0 M135.17 0 C135.77 42.12, 132.87 86.81, 135.17 110.01 M135.17 0 C134.79 34.61, 134.65 67.66, 135.17 110.01 M135.17 110.01 C92.79 110.4, 52.39 112.08, 0 110.01 M135.17 110.01 C82.22 110.14, 28.03 109.96, 0 110.01 M0 110.01 C-1 84.72, -1.3 61.91, 0 0 M0 110.01 C1.11 82.4, 0.69 53.78, 0 0" stroke="#1e1e1e" stroke-width="2" fill="none"></path></g><g stroke-linecap="round"><g transform="translate(782.4848671780342 1990.6459663762648) rotate(0 67.58333587646484 0)"><path d="M0 0 C48.94 -0.9, 97.95 0.19, 135.17 0 M0 0 C47.03 1.56, 96.12 0.83, 135.17 0" stroke="#000" stroke-width="1" fill="none"></path></g></g><mask></mask><g stroke-linecap="round"><g transform="translate(782.4848671780342 2016.3410152953352) rotate(0 67.58333587646484 0)"><path d="M0 0 C49.37 1.14, 102.91 0.03, 135.17 0 M0 0 C29.61 -0.87, 56.95 -0.01, 135.17 0" stroke="#000" stroke-width="1" fill="none"></path></g></g><mask></mask><g transform="translate(794.5294213588484 1932.029136029635) rotate(0 43.413925586022515 20.074256968023747)"><text x="0" y="28.136078566382167" font-family="Virgil, Segoe UI Emoji" font-size="32.11881114883809px" fill="#1e1e1e" text-anchor="start" style="white-space: pre;" direction="ltr" dominant-baseline="alphabetic">Client</text></g><g stroke-linecap="round" transform="translate(321.73477450594123 2587.0013054393194) rotate(0 111.07351712442994 84.28191500396451)"><path d="M32 0 C84.12 0, 136.24 0, 190.15 0 M32 0 C94.21 0, 156.42 0, 190.15 0 M190.15 0 C211.48 0, 222.15 10.67, 222.15 32 M190.15 0 C211.48 0, 222.15 10.67, 222.15 32 M222.15 32 C222.15 61.82, 222.15 91.65, 222.15 136.56 M222.15 32 C222.15 54.09, 222.15 76.19, 222.15 136.56 M222.15 136.56 C222.15 157.9, 211.48 168.56, 190.15 168.56 M222.15 136.56 C222.15 157.9, 211.48 168.56, 190.15 168.56 M190.15 168.56 C156.57 168.56, 122.99 168.56, 32 168.56 M190.15 168.56 C135.71 168.56, 81.28 168.56, 32 168.56 M32 168.56 C10.67 168.56, 0 157.9, 0 136.56 M32 168.56 C10.67 168.56, 0 157.9, 0 136.56 M0 136.56 C0 101.46, 0 66.35, 0 32 M0 136.56 C0 113.74, 0 90.91, 0 32 M0 32 C0 10.67, 10.67 0, 32 0 M0 32 C0 10.67, 10.67 0, 32 0" stroke="#1e1e1e" stroke-width="1" fill="none"></path></g><g transform="translate(368.32496185742195 2648.783220443284) rotate(0 64.48332977294922 22.5)"><text x="64.48332977294922" y="31.536" font-family="Virgil, Segoe UI Emoji" font-size="36px" fill="#1e1e1e" text-anchor="middle" style="white-space: pre;" direction="ltr" dominant-baseline="alphabetic">service1</text></g><g stroke-linecap="round" transform="translate(696.9902124109808 2582.536038419242) rotate(0 111.07351712442994 84.28191500396451)"><path d="M32 0 C69.44 0, 106.88 0, 190.15 0 M32 0 C84.35 0, 136.7 0, 190.15 0 M190.15 0 C211.48 0, 222.15 10.67, 222.15 32 M190.15 0 C211.48 0, 222.15 10.67, 222.15 32 M222.15 32 C222.15 64.38, 222.15 96.76, 222.15 136.56 M222.15 32 C222.15 64.99, 222.15 97.97, 222.15 136.56 M222.15 136.56 C222.15 157.9, 211.48 168.56, 190.15 168.56 M222.15 136.56 C222.15 157.9, 211.48 168.56, 190.15 168.56 M190.15 168.56 C152.45 168.56, 114.75 168.56, 32 168.56 M190.15 168.56 C148.06 168.56, 105.97 168.56, 32 168.56 M32 168.56 C10.67 168.56, 0 157.9, 0 136.56 M32 168.56 C10.67 168.56, 0 157.9, 0 136.56 M0 136.56 C0 95.93, 0 55.3, 0 32 M0 136.56 C0 111.17, 0 85.78, 0 32 M0 32 C0 10.67, 10.67 0, 32 0 M0 32 C0 10.67, 10.67 0, 32 0" stroke="#1e1e1e" stroke-width="1" fill="none"></path></g><g stroke-linecap="round" transform="translate(1104.4458279930604 2581.4197216642224) rotate(0 111.07351712442994 84.28191500396451)"><path d="M32 0 C91.84 0, 151.68 0, 190.15 0 M32 0 C80.93 0, 129.86 0, 190.15 0 M190.15 0 C211.48 0, 222.15 10.67, 222.15 32 M190.15 0 C211.48 0, 222.15 10.67, 222.15 32 M222.15 32 C222.15 58.72, 222.15 85.44, 222.15 136.56 M222.15 32 C222.15 54.01, 222.15 76.01, 222.15 136.56 M222.15 136.56 C222.15 157.9, 211.48 168.56, 190.15 168.56 M222.15 136.56 C222.15 157.9, 211.48 168.56, 190.15 168.56 M190.15 168.56 C135.79 168.56, 81.43 168.56, 32 168.56 M190.15 168.56 C137.77 168.56, 85.39 168.56, 32 168.56 M32 168.56 C10.67 168.56, 0 157.9, 0 136.56 M32 168.56 C10.67 168.56, 0 157.9, 0 136.56 M0 136.56 C0 97.32, 0 58.08, 0 32 M0 136.56 C0 103.28, 0 69.99, 0 32 M0 32 C0 10.67, 10.67 0, 32 0 M0 32 C0 10.67, 10.67 0, 32 0" stroke="#1e1e1e" stroke-width="1" fill="none"></path></g><g transform="translate(757.2713171820283 2653.980310740483) rotate(0 72.41666412353516 22.5)"><text x="0" y="31.536" font-family="Virgil, Segoe UI Emoji" font-size="36px" fill="#1e1e1e" text-anchor="start" style="white-space: pre;" direction="ltr" dominant-baseline="alphabetic">service2</text></g><g transform="translate(1141.2842809087003 2661.794528025619) rotate(0 72.41666412353516 22.5)"><text x="0" y="31.536" font-family="Virgil, Segoe UI Emoji" font-size="36px" fill="#1e1e1e" text-anchor="start" style="white-space: pre;" direction="ltr" dominant-baseline="alphabetic">service2</text></g><g stroke-linecap="round" transform="translate(708.1533799611748 2859.382593664052) rotate(0 111.07351712442994 84.28191500396451)"><path d="M32 0 C74.5 0, 117 0, 190.15 0 M32 0 C92.28 0, 152.56 0, 190.15 0 M190.15 0 C211.48 0, 222.15 10.67, 222.15 32 M190.15 0 C211.48 0, 222.15 10.67, 222.15 32 M222.15 32 C222.15 64.45, 222.15 96.89, 222.15 136.56 M222.15 32 C222.15 71.63, 222.15 111.25, 222.15 136.56 M222.15 136.56 C222.15 157.9, 211.48 168.56, 190.15 168.56 M222.15 136.56 C222.15 157.9, 211.48 168.56, 190.15 168.56 M190.15 168.56 C127.6 168.56, 65.04 168.56, 32 168.56 M190.15 168.56 C138.2 168.56, 86.26 168.56, 32 168.56 M32 168.56 C10.67 168.56, 0 157.9, 0 136.56 M32 168.56 C10.67 168.56, 0 157.9, 0 136.56 M0 136.56 C0 114.95, 0 93.33, 0 32 M0 136.56 C0 109.67, 0 82.78, 0 32 M0 32 C0 10.67, 10.67 0, 32 0 M0 32 C0 10.67, 10.67 0, 32 0" stroke="#1e1e1e" stroke-width="1" fill="none"></path></g><g transform="translate(717.0839140013302 2926.3615989652158) rotate(0 106.26667022705078 22.5)"><text x="0" y="31.536" font-family="Virgil, Segoe UI Emoji" font-size="36px" fill="#1e1e1e" text-anchor="start" style="white-space: pre;" direction="ltr" dominant-baseline="alphabetic">api gateway</text></g><g mask="url(#mask-RFHefWczjLAqJerVcM8RD)" stroke-linecap="round"><g transform="translate(825.3666392382115 3271.303476266209) rotate(0 -34.60581940560121 -117.21325927703651)"><path d="M0 0 C-11.54 -18.42, -68.47 -71.44, -69.21 -110.52 C-69.96 -149.59, -15.26 -213.77, -4.47 -234.43 M0 0 C-11.54 -18.42, -68.47 -71.44, -69.21 -110.52 C-69.96 -149.59, -15.26 -213.77, -4.47 -234.43" stroke="#1e1e1e" stroke-width="1" fill="none"></path></g><g transform="translate(825.3666392382115 3271.303476266209) rotate(0 -34.60581940560121 -117.21325927703651)"><path d="M-10.32 -210.12 C-8.42 -218.01, -6.52 -225.89, -4.47 -234.43 M-10.32 -210.12 C-9.14 -215.03, -7.95 -219.95, -4.47 -234.43" stroke="#1e1e1e" stroke-width="1" fill="none"></path></g><g transform="translate(825.3666392382115 3271.303476266209) rotate(0 -34.60581940560121 -117.21325927703651)"><path d="M-24.57 -219.57 C-18.05 -224.39, -11.52 -229.21, -4.47 -234.43 M-24.57 -219.57 C-20.51 -222.57, -16.45 -225.58, -4.47 -234.43" stroke="#1e1e1e" stroke-width="1" fill="none"></path></g></g><mask id="mask-RFHefWczjLAqJerVcM8RD"><rect x="0" y="0" fill="#fff" width="994.5782780494139" height="3605.729994820282"></rect><rect x="589.6049973752513" y="3138.288117519289" fill="#000" width="333.1000061035156" height="45" opacity="1"></rect></mask><g transform="translate(589.6049973752513 3138.2881175192897) rotate(0 201.1520612736855 15.802099469883387)"><text x="166.5500030517578" y="31.536" font-family="Virgil, Segoe UI Emoji" font-size="36px" fill="#1e1e1e" text-anchor="middle" style="white-space: pre;" direction="ltr" dominant-baseline="alphabetic">request with token</text></g><g mask="url(#mask-tiiuEmWmVD34UiVYCSbrf)" stroke-linecap="round"><g transform="translate(828.7155895032702 2850.452059623897) rotate(0 -183.96879680686953 -44.6526702007759)"><path d="M0 0 C-52.84 -4.65, -255.71 -13.02, -317.03 -27.91 C-378.36 -42.79, -359.45 -79.07, -367.94 -89.31 M0 0 C-52.84 -4.65, -255.71 -13.02, -317.03 -27.91 C-378.36 -42.79, -359.45 -79.07, -367.94 -89.31" stroke="#1e1e1e" stroke-width="1" fill="none"></path></g><g transform="translate(828.7155895032702 2850.452059623897) rotate(0 -183.96879680686953 -44.6526702007759)"><path d="M-354.74 -68.08 C-359.68 -76.03, -364.63 -83.98, -367.94 -89.31 M-354.74 -68.08 C-360.01 -76.56, -365.28 -85.04, -367.94 -89.31" stroke="#1e1e1e" stroke-width="1" fill="none"></path></g><g transform="translate(828.7155895032702 2850.452059623897) rotate(0 -183.96879680686953 -44.6526702007759)"><path d="M-371.47 -64.56 C-370.15 -73.83, -368.82 -83.1, -367.94 -89.31 M-371.47 -64.56 C-370.06 -74.44, -368.65 -84.33, -367.94 -89.31" stroke="#1e1e1e" stroke-width="1" fill="none"></path></g></g><mask id="mask-tiiuEmWmVD34UiVYCSbrf"><rect x="0" y="0" fill="#fff" width="1296.6531831170091" height="3039.757400025449"></rect><rect x="345.1316280260032" y="2800.0441407484122" fill="#000" width="333.1000061035156" height="45" opacity="1"></rect></mask><g transform="translate(345.1316280260032 2800.0441407484122) rotate(0 299.6151646703974 5.755248674709037)"><text x="166.5500030517578" y="31.536" font-family="Virgil, Segoe UI Emoji" font-size="36px" fill="#1e1e1e" text-anchor="middle" style="white-space: pre;" direction="ltr" dominant-baseline="alphabetic">request with token</text></g><g stroke-linecap="round"><g transform="translate(825.3666392382113 2850.452059623897) rotate(0 1.6744751325290963 -44.0945118232662)"><path d="M0 0 C0.56 -0.93, 3.35 9.12, 3.35 -5.58 C3.35 -20.28, 0.56 -74.42, 0 -88.19 M0 0 C0.56 -0.93, 3.35 9.12, 3.35 -5.58 C3.35 -20.28, 0.56 -74.42, 0 -88.19" stroke="#1e1e1e" stroke-width="1" fill="none"></path></g><g transform="translate(825.3666392382113 2850.452059623897) rotate(0 1.6744751325290963 -44.0945118232662)"><path d="M9.62 -65.11 C5.82 -74.22, 2.03 -83.32, 0 -88.19 M9.62 -65.11 C6.7 -72.12, 3.78 -79.12, 0 -88.19" stroke="#1e1e1e" stroke-width="1" fill="none"></path></g><g transform="translate(825.3666392382113 2850.452059623897) rotate(0 1.6744751325290963 -44.0945118232662)"><path d="M-7.47 -64.33 C-4.52 -73.74, -1.57 -83.16, 0 -88.19 M-7.47 -64.33 C-5.2 -71.57, -2.93 -78.81, 0 -88.19" stroke="#1e1e1e" stroke-width="1" fill="none"></path></g></g><mask></mask><g stroke-linecap="round"><g transform="translate(829.8319062582889 2850.452059623897) rotate(0 208.7512331886271 -48.001620465834094)"><path d="M0 0 C42.98 -3.72, 188.29 -6.33, 257.87 -22.33 C327.45 -38.33, 390.9 -83.72, 417.5 -96 M0 0 C42.98 -3.72, 188.29 -6.33, 257.87 -22.33 C327.45 -38.33, 390.9 -83.72, 417.5 -96" stroke="#1e1e1e" stroke-width="1" fill="none"></path></g><g transform="translate(829.8319062582889 2850.452059623897) rotate(0 208.7512331886271 -48.001620465834094)"><path d="M401.09 -77.14 C406.5 -83.35, 411.9 -89.56, 417.5 -96 M401.09 -77.14 C404.42 -80.97, 407.75 -84.8, 417.5 -96" stroke="#1e1e1e" stroke-width="1" fill="none"></path></g><g transform="translate(829.8319062582889 2850.452059623897) rotate(0 208.7512331886271 -48.001620465834094)"><path d="M392.81 -92.1 C400.94 -93.39, 409.07 -94.67, 417.5 -96 M392.81 -92.1 C397.82 -92.9, 402.83 -93.69, 417.5 -96" stroke="#1e1e1e" stroke-width="1" fill="none"></path></g></g><mask></mask><g stroke-linecap="round" transform="translate(1564.3683310610515 2949.8042508206236) rotate(0 151.81907868263772 94.88692417664856)"><path d="M32 0 C103.91 0, 175.82 0, 271.64 0 M32 0 C117.63 0, 203.27 0, 271.64 0 M271.64 0 C292.97 0, 303.64 10.67, 303.64 32 M271.64 0 C292.97 0, 303.64 10.67, 303.64 32 M303.64 32 C303.64 61.65, 303.64 91.31, 303.64 157.77 M303.64 32 C303.64 71.36, 303.64 110.73, 303.64 157.77 M303.64 157.77 C303.64 179.11, 292.97 189.77, 271.64 189.77 M303.64 157.77 C303.64 179.11, 292.97 189.77, 271.64 189.77 M271.64 189.77 C194.48 189.77, 117.32 189.77, 32 189.77 M271.64 189.77 C220.04 189.77, 168.44 189.77, 32 189.77 M32 189.77 C10.67 189.77, 0 179.11, 0 157.77 M32 189.77 C10.67 189.77, 0 179.11, 0 157.77 M0 157.77 C0 123.51, 0 89.25, 0 32 M0 157.77 C0 119.11, 0 80.45, 0 32 M0 32 C0 10.67, 10.67 0, 32 0 M0 32 C0 10.67, 10.67 0, 32 0" stroke="#1e1e1e" stroke-width="1" fill="none"></path></g><g transform="translate(1581.570312928778 2991.973011848953) rotate(0 203.86666870117188 45)"><text x="0" y="31.536" font-family="Virgil, Segoe UI Emoji" font-size="36px" fill="#1e1e1e" text-anchor="start" style="white-space: pre;" direction="ltr" dominant-baseline="alphabetic">keycloak server</text><text x="0" y="76.536" font-family="Virgil, Segoe UI Emoji" font-size="36px" fill="#1e1e1e" text-anchor="start" style="white-space: pre;" direction="ltr" dominant-baseline="alphabetic">(Authentication server)</text></g><g stroke-linecap="round" transform="translate(715.9675972463106 3279.117693551345) rotate(0 104.37561659431367 58.60662963851837)"><path d="M29.3 0 C73.95 0, 118.59 0, 179.45 0 M29.3 0 C72.59 0, 115.88 0, 179.45 0 M179.45 0 C198.98 0, 208.75 9.77, 208.75 29.3 M179.45 0 C198.98 0, 208.75 9.77, 208.75 29.3 M208.75 29.3 C208.75 44.26, 208.75 59.21, 208.75 87.91 M208.75 29.3 C208.75 48.94, 208.75 68.58, 208.75 87.91 M208.75 87.91 C208.75 107.45, 198.98 117.21, 179.45 117.21 M208.75 87.91 C208.75 107.45, 198.98 117.21, 179.45 117.21 M179.45 117.21 C137.03 117.21, 94.62 117.21, 29.3 117.21 M179.45 117.21 C135.74 117.21, 92.03 117.21, 29.3 117.21 M29.3 117.21 C9.77 117.21, 0 107.45, 0 87.91 M29.3 117.21 C9.77 117.21, 0 107.45, 0 87.91 M0 87.91 C0 68.71, 0 49.5, 0 29.3 M0 87.91 C0 66.71, 0 45.52, 0 29.3 M0 29.3 C0 9.77, 9.77 0, 29.3 0 M0 29.3 C0 9.77, 9.77 0, 29.3 0" stroke="#1e1e1e" stroke-width="1" fill="none"></path></g><g transform="translate(749.7765481912102 3315.2243231898633) rotate(0 70.56666564941406 22.5)"><text x="70.56666564941406" y="31.536" font-family="Virgil, Segoe UI Emoji" font-size="36px" fill="#1e1e1e" text-anchor="middle" style="white-space: pre;" direction="ltr" dominant-baseline="alphabetic">postman</text></g><g mask="url(#mask-22MKxwEfA9vrKO6pcFlDZ)" stroke-linecap="round"><g transform="translate(925.7188304349379 3302.368819610326) rotate(0 317.09211680301803 -98.72047278724085)"><path d="M0 0 C105.7 -32.91, 528.49 -164.53, 634.18 -197.44 M0 0 C105.7 -32.91, 528.49 -164.53, 634.18 -197.44" stroke="#1e1e1e" stroke-width="1" fill="none"></path></g><g transform="translate(925.7188304349379 3302.368819610326) rotate(0 317.09211680301803 -98.72047278724085)"><path d="M614.3 -182.29 C618.54 -185.53, 622.79 -188.76, 634.18 -197.44 M614.3 -182.29 C618.6 -185.58, 622.91 -188.86, 634.18 -197.44" stroke="#1e1e1e" stroke-width="1" fill="none"></path></g><g transform="translate(925.7188304349379 3302.368819610326) rotate(0 317.09211680301803 -98.72047278724085)"><path d="M609.21 -198.62 C614.54 -198.37, 619.88 -198.12, 634.18 -197.44 M609.21 -198.62 C614.62 -198.37, 620.03 -198.11, 634.18 -197.44" stroke="#1e1e1e" stroke-width="1" fill="none"></path></g></g><mask id="mask-22MKxwEfA9vrKO6pcFlDZ"><rect x="0" y="0" fill="#fff" width="1659.903064040974" height="3599.809765184808"></rect><rect x="1071.9609411344404" y="3136.148346823085" fill="#000" width="341.70001220703125" height="135" opacity="1"></rect></mask><g transform="translate(1071.9609411344404 3136.1483468230854) rotate(0 170.8500061035155 67.5)"><text x="170.85000610351562" y="31.536" font-family="Virgil, Segoe UI Emoji" font-size="36px" fill="#1e1e1e" text-anchor="middle" style="white-space: pre;" direction="ltr" dominant-baseline="alphabetic">request for token</text><text x="170.85000610351562" y="76.536" font-family="Virgil, Segoe UI Emoji" font-size="36px" fill="#1e1e1e" text-anchor="middle" style="white-space: pre;" direction="ltr" dominant-baseline="alphabetic">with username and </text><text x="170.85000610351562" y="121.536" font-family="Virgil, Segoe UI Emoji" font-size="36px" fill="#1e1e1e" text-anchor="middle" style="white-space: pre;" direction="ltr" dominant-baseline="alphabetic">password</text></g><g mask="url(#mask-xug-Kmt9fSW6um3K8LWXS)" stroke-linecap="round"><g transform="translate(1560.3123813059924 2998.7260346932244) rotate(0 -340.6812689134249 137.40503754151177)"><path d="M0 0 C-69.09 10.08, -301 14.68, -414.56 60.48 C-528.12 106.28, -636.9 239.09, -681.36 274.81 M0 0 C-69.09 10.08, -301 14.68, -414.56 60.48 C-528.12 106.28, -636.9 239.09, -681.36 274.81" stroke="#1e1e1e" stroke-width="1" fill="none"></path></g><g transform="translate(1560.3123813059924 2998.7260346932244) rotate(0 -340.6812689134249 137.40503754151177)"><path d="M-670.31 252.39 C-673.12 258.1, -675.93 263.8, -681.36 274.81 M-670.31 252.39 C-674.27 260.42, -678.23 268.46, -681.36 274.81" stroke="#1e1e1e" stroke-width="1" fill="none"></path></g><g transform="translate(1560.3123813059924 2998.7260346932244) rotate(0 -340.6812689134249 137.40503754151177)"><path d="M-658.48 264.74 C-664.31 267.3, -670.13 269.87, -681.36 274.81 M-658.48 264.74 C-666.68 268.35, -674.88 271.96, -681.36 274.81" stroke="#1e1e1e" stroke-width="1" fill="none"></path></g></g><mask id="mask-xug-Kmt9fSW6um3K8LWXS"><rect x="0" y="0" fill="#fff" width="2341.674919132842" height="3373.536109776248"></rect><rect x="1038.649549454657" y="3036.7032928125245" fill="#000" width="214.1999969482422" height="45" opacity="1"></rect></mask><g transform="translate(1038.6495494546568 3036.703292812524) rotate(0 180.98156293791044 99.4277794222121)"><text x="107.0999984741211" y="31.536" font-family="Virgil, Segoe UI Emoji" font-size="36px" fill="#1e1e1e" text-anchor="middle" style="white-space: pre;" direction="ltr" dominant-baseline="alphabetic">token detail</text></g><g stroke-linecap="round"><g transform="translate(544.8818087548012 2678.4162155811246) rotate(0 75.5542018280899 -3.7592536786494293)"><path d="M0 0 C25.18 -1.25, 125.92 -6.27, 151.11 -7.52 M0 0 C25.18 -1.25, 125.92 -6.27, 151.11 -7.52" stroke="#1e1e1e" stroke-width="1" fill="none"></path></g><g transform="translate(544.8818087548012 2678.4162155811246) rotate(0 75.5542018280899 -3.7592536786494293)"><path d="M128.07 2.19 C135.03 -0.74, 142 -3.68, 151.11 -7.52 M128.07 2.19 C136.2 -1.24, 144.33 -4.66, 151.11 -7.52" stroke="#1e1e1e" stroke-width="1" fill="none"></path></g><g transform="translate(544.8818087548012 2678.4162155811246) rotate(0 75.5542018280899 -3.7592536786494293)"><path d="M127.22 -14.89 C134.44 -12.66, 141.66 -10.43, 151.11 -7.52 M127.22 -14.89 C135.65 -12.29, 144.08 -9.69, 151.11 -7.52" stroke="#1e1e1e" stroke-width="1" fill="none"></path></g></g><mask></mask><g transform="translate(529.7361922453526 2631.337277237147) rotate(0 80.95827820549277 10.937023273770365)"><text x="0" y="15.329331820516424" font-family="Virgil, Segoe UI Emoji" font-size="17.499237238032446px" fill="#1e1e1e" text-anchor="start" style="white-space: pre;" direction="ltr" dominant-baseline="alphabetic">request with token</text></g><g transform="translate(1259.9148483957038 3269.07084275617) rotate(0 16.383333206176758 52.66722427892614)"><text x="0" y="73.81838154934292" font-family="Virgil, Segoe UI Emoji" font-size="84.26755884628187px" fill="#e03131" text-anchor="start" style="white-space: pre;" direction="ltr" dominant-baseline="alphabetic">1</text></g><g transform="translate(1147.982181438817 2987.7590204912826) rotate(0 12.816666603088379 22.5)"><text x="0" y="31.536" font-family="Virgil, Segoe UI Emoji" font-size="36px" fill="#e03131" text-anchor="start" style="white-space: pre;" direction="ltr" dominant-baseline="alphabetic">2</text></g><g transform="translate(791.8771365876296 3087.111211688009) rotate(0 12.25 22.5)"><text x="0" y="31.536" font-family="Virgil, Segoe UI Emoji" font-size="36px" fill="#e03131" text-anchor="start" style="white-space: pre;" direction="ltr" dominant-baseline="alphabetic">3</text></g><g transform="translate(452.5168430617331 2851.5683763789166) rotate(0 11.516666412353516 22.5)"><text x="0" y="31.536" font-family="Virgil, Segoe UI Emoji" font-size="36px" fill="#e03131" text-anchor="start" style="white-space: pre;" direction="ltr" dominant-baseline="alphabetic">4</text></g><g transform="translate(596.5217044592353 2590.3502557043776) rotate(0 11.116666793823242 22.5)"><text x="0" y="31.536" font-family="Virgil, Segoe UI Emoji" font-size="36px" fill="#e03131" text-anchor="start" style="white-space: pre;" direction="ltr" dominant-baseline="alphabetic">5</text></g><g stroke-linecap="round"><g transform="translate(689.1759951258452 2707.5635149814143) rotate(0 -72.0889348080122 1.6713452607934869)"><path d="M0 0 C-24.03 0.56, -120.15 2.79, -144.18 3.34 M0 0 C-24.03 0.56, -120.15 2.79, -144.18 3.34" stroke="#e03131" stroke-width="1" fill="none"></path></g><g transform="translate(689.1759951258452 2707.5635149814143) rotate(0 -72.0889348080122 1.6713452607934869)"><path d="M-120.89 -5.75 C-125.72 -3.86, -130.56 -1.98, -144.18 3.34 M-120.89 -5.75 C-126.68 -3.49, -132.47 -1.23, -144.18 3.34" stroke="#e03131" stroke-width="1" fill="none"></path></g><g transform="translate(689.1759951258452 2707.5635149814143) rotate(0 -72.0889348080122 1.6713452607934869)"><path d="M-120.49 11.35 C-125.41 9.69, -130.32 8.02, -144.18 3.34 M-120.49 11.35 C-126.38 9.36, -132.27 7.37, -144.18 3.34" stroke="#e03131" stroke-width="1" fill="none"></path></g></g><mask></mask><g stroke-linecap="round"><g transform="translate(342.1030728329788 2756.5651354472484) rotate(0 160.28861917283388 81.73360398782961)"><path d="M0 0 C-8.02 17.51, -109.55 77.81, -48.1 105.05 C13.34 132.29, 299.22 153.73, 368.68 163.47 M0 0 C-8.02 17.51, -109.55 77.81, -48.1 105.05 C13.34 132.29, 299.22 153.73, 368.68 163.47" stroke="#e03131" stroke-width="1" fill="none"></path></g><g transform="translate(342.1030728329788 2756.5651354472484) rotate(0 160.28861917283388 81.73360398782961)"><path d="M344.41 169.45 C350.32 167.99, 356.24 166.53, 368.68 163.47 M344.41 169.45 C350.36 167.98, 356.31 166.51, 368.68 163.47" stroke="#e03131" stroke-width="1" fill="none"></path></g><g transform="translate(342.1030728329788 2756.5651354472484) rotate(0 160.28861917283388 81.73360398782961)"><path d="M346.24 152.45 C351.71 155.13, 357.18 157.82, 368.68 163.47 M346.24 152.45 C351.74 155.15, 357.25 157.85, 368.68 163.47" stroke="#e03131" stroke-width="1" fill="none"></path></g></g><mask></mask><g stroke-linecap="round"><g transform="translate(749.4570998968927 3032.4116906920585) rotate(0 -12.627959012040947 122.8530014296432)"><path d="M0 0 C0 0, 7.81 -14.33, 0 0 C-7.81 14.33, -39.07 50.98, -46.89 85.96 C-54.7 120.93, -58.3 183.24, -46.89 209.87 C-35.47 236.49, 10.21 239.73, 21.63 245.71 M0 0 C0 0, 7.81 -14.33, 0 0 C-7.81 14.33, -39.07 50.98, -46.89 85.96 C-54.7 120.93, -58.3 183.24, -46.89 209.87 C-35.47 236.49, 10.21 239.73, 21.63 245.71" stroke="#e03131" stroke-width="1" fill="none"></path></g><g transform="translate(749.4570998968927 3032.4116906920585) rotate(0 -12.627959012040947 122.8530014296432)"><path d="M-3.33 247.09 C3.63 246.71, 10.59 246.32, 21.63 245.71 M-3.33 247.09 C6 246.57, 15.34 246.06, 21.63 245.71" stroke="#e03131" stroke-width="1" fill="none"></path></g><g transform="translate(749.4570998968927 3032.4116906920585) rotate(0 -12.627959012040947 122.8530014296432)"><path d="M1.62 230.72 C7.2 234.9, 12.78 239.08, 21.63 245.71 M1.62 230.72 C9.1 236.33, 16.59 241.93, 21.63 245.71" stroke="#e03131" stroke-width="1" fill="none"></path></g></g><mask></mask><g transform="translate(319.67514921442535 2478.718580202438) rotate(0 379.26666259765625 22.5)"><text x="0" y="31.536" font-family="Virgil, Segoe UI Emoji" font-size="36px" fill="#1971c2" text-anchor="start" style="white-space: pre;" direction="ltr" dominant-baseline="alphabetic">Security Authentication Flow with OAuth2 </text></g><g transform="translate(727.2060981088171 375.09847992528006) rotate(0 81.91666412353516 22.5)"><text x="0" y="31.536" font-family="Virgil, Segoe UI Emoji" font-size="36px" fill="#1e1e1e" text-anchor="start" style="white-space: pre;" direction="ltr" dominant-baseline="alphabetic">questions</text></g><g transform="translate(1334.9394563850333 393.10966739541965) rotate(0 59.08333206176758 22.5)"><text x="0" y="31.536" font-family="Virgil, Segoe UI Emoji" font-size="36px" fill="#1e1e1e" text-anchor="start" style="white-space: pre;" direction="ltr" dominant-baseline="alphabetic">USERS</text></g><g transform="translate(102.34500669925285 165.00749091829158) rotate(0 44.79999923706055 22.5)"><text x="0" y="31.536" font-family="Virgil, Segoe UI Emoji" font-size="36px" fill="#1e1e1e" text-anchor="start" style="white-space: pre;" direction="ltr" dominant-baseline="alphabetic">8081</text></g><g transform="translate(769.4109011615044 166.47035472193687) rotate(0 52.733333587646484 22.5)"><text x="0" y="31.536" font-family="Virgil, Segoe UI Emoji" font-size="36px" fill="#1e1e1e" text-anchor="start" style="white-space: pre;" direction="ltr" dominant-baseline="alphabetic">8082</text></g><g transform="translate(812.5653833690405 1188.280721568171) rotate(0 52.16666793823242 22.5)"><text x="0" y="31.536" font-family="Virgil, Segoe UI Emoji" font-size="36px" fill="#1e1e1e" text-anchor="start" style="white-space: pre;" direction="ltr" dominant-baseline="alphabetic">8083</text></g><g stroke-linecap="round" transform="translate(202.52060493059014 4362.479751200474) rotate(0 189.60501583589013 133.00650364607236)"><path d="M32 0 C129.96 0, 227.92 0, 347.21 0 M32 0 C135.73 0, 239.47 0, 347.21 0 M347.21 0 C368.54 0, 379.21 10.67, 379.21 32 M347.21 0 C368.54 0, 379.21 10.67, 379.21 32 M379.21 32 C379.21 93.58, 379.21 155.15, 379.21 234.01 M379.21 32 C379.21 103.22, 379.21 174.45, 379.21 234.01 M379.21 234.01 C379.21 255.35, 368.54 266.01, 347.21 266.01 M379.21 234.01 C379.21 255.35, 368.54 266.01, 347.21 266.01 M347.21 266.01 C224.51 266.01, 101.8 266.01, 32 266.01 M347.21 266.01 C281.91 266.01, 216.61 266.01, 32 266.01 M32 266.01 C10.67 266.01, 0 255.35, 0 234.01 M32 266.01 C10.67 266.01, 0 255.35, 0 234.01 M0 234.01 C0 163.27, 0 92.53, 0 32 M0 234.01 C0 159.97, 0 85.93, 0 32 M0 32 C0 10.67, 10.67 0, 32 0 M0 32 C0 10.67, 10.67 0, 32 0" stroke="#1e1e1e" stroke-width="1" fill="none"></path></g><g transform="translate(294.021532970796 4474.733467043613) rotate(0 102.9000015258789 22.5)"><text x="0" y="31.536" font-family="Virgil, Segoe UI Emoji" font-size="36px" fill="#1e1e1e" text-anchor="start" style="white-space: pre;" direction="ltr" dominant-baseline="alphabetic">quiz service</text></g><g transform="translate(329.8672573576805 4661.508557270013) rotate(0 73.6500015258789 22.5)"><text x="0" y="31.536" font-family="Virgil, Segoe UI Emoji" font-size="36px" fill="#1e1e1e" text-anchor="start" style="white-space: pre;" direction="ltr" dominant-baseline="alphabetic">producer</text></g><g stroke-linecap="round"><g transform="translate(591.1637219673403 4498.698771304138) rotate(0 114.1403329161327 -7.737763716026166)"><path d="M0 0 C38.05 -2.58, 190.23 -12.9, 228.28 -15.48 M0 0 C38.05 -2.58, 190.23 -12.9, 228.28 -15.48" stroke="#1e1e1e" stroke-width="1" fill="none"></path></g><g transform="translate(591.1637219673403 4498.698771304138) rotate(0 114.1403329161327 -7.737763716026166)"><path d="M205.42 -5.36 C212.3 -8.4, 219.18 -11.45, 228.28 -15.48 M205.42 -5.36 C212.43 -8.46, 219.45 -11.56, 228.28 -15.48" stroke="#1e1e1e" stroke-width="1" fill="none"></path></g><g transform="translate(591.1637219673403 4498.698771304138) rotate(0 114.1403329161327 -7.737763716026166)"><path d="M204.26 -22.42 C211.49 -20.33, 218.72 -18.24, 228.28 -15.48 M204.26 -22.42 C211.63 -20.29, 219 -18.16, 228.28 -15.48" stroke="#1e1e1e" stroke-width="1" fill="none"></path></g></g><mask></mask><g transform="translate(870.383048770442 4390.779007295383) rotate(0 8.4897768284726 49.99535243433911)" stroke="none"><path fill="#1e1e1e" d="M 1.21,0.60 Q 1.21,0.60 -0.22,3.95 -1.67,7.29 -3.14,10.56 -4.60,13.83 -5.78,16.32 -6.95,18.82 -7.66,21.36 -8.36,23.91 -9.23,26.70 -10.09,29.49 -10.71,32.22 -11.32,34.95 -11.55,37.91 -11.78,40.88 -11.62,43.68 -11.46,46.48 -11.11,49.86 -10.77,53.23 -10.36,56.27 -9.94,59.32 -9.51,61.66 -9.07,64.01 -8.62,66.38 -8.17,68.74 -7.70,71.11 -7.23,73.47 -6.78,75.53 -6.32,77.60 -5.59,80.05 -4.85,82.50 -4.26,84.68 -3.67,86.85 -3.16,88.55 -2.65,90.24 -1.98,91.30 -1.31,92.37 -0.71,93.47 -0.10,94.58 0.78,95.34 1.67,96.11 2.97,96.55 4.28,96.99 6.01,96.99 7.73,96.99 8.97,96.49 10.21,95.99 12.08,94.99 13.95,94.00 15.13,92.88 16.31,91.77 17.42,90.71 18.54,89.64 19.74,88.19 20.95,86.73 21.95,85.11 22.95,83.48 23.62,82.04 24.29,80.60 24.82,78.97 25.35,77.34 25.86,75.79 26.37,74.23 26.83,72.06 27.28,69.89 27.46,67.95 27.65,66.01 27.73,63.85 27.81,61.69 28.13,59.54 28.44,57.39 28.29,55.68 28.14,53.98 28.07,51.74 28.01,49.51 27.97,47.48 27.94,45.45 27.92,43.77 27.91,42.10 27.90,40.30 27.88,38.50 27.88,37.20 27.88,35.89 27.62,34.44 27.35,32.98 27.23,31.66 27.10,30.34 26.80,28.85 26.50,27.35 26.34,26.03 26.19,24.70 25.87,23.20 25.55,21.70 25.09,19.28 24.63,16.86 23.85,15.28 23.08,13.70 22.19,12.28 21.30,10.85 20.50,9.89 19.70,8.93 18.10,7.68 16.50,6.43 15.47,5.69 14.45,4.96 13.14,4.49 11.82,4.01 10.18,3.51 8.54,3.01 6.79,3.11 5.04,3.20 2.92,3.48 0.81,3.76 -1.22,4.60 -3.25,5.44 -5.12,6.74 -7.00,8.04 -8.71,9.44 -10.42,10.83 -11.19,12.71 -11.96,14.58 -12.06,14.77 -12.17,14.95 -12.32,15.10 -12.48,15.24 -12.67,15.33 -12.87,15.41 -13.08,15.43 -13.29,15.45 -13.50,15.41 -13.70,15.36 -13.88,15.25 -14.07,15.13 -14.20,14.97 -14.34,14.81 -14.41,14.61 -14.49,14.41 -14.50,14.20 -14.50,13.98 -14.45,13.78 -14.39,13.58 -14.26,13.40 -14.14,13.23 -13.97,13.10 -13.80,12.98 -13.60,12.91 -13.40,12.85 -13.18,12.85 -12.97,12.85 -12.77,12.92 -12.57,12.99 -12.40,13.12 -12.24,13.25 -12.12,13.43 -12.00,13.61 -11.95,13.82 -11.89,14.02 -11.91,14.23 -11.92,14.44 -12.00,14.64 -12.09,14.84 -12.23,15.00 -12.37,15.16 -12.55,15.26 -12.73,15.37 -12.94,15.41 -13.15,15.46 -13.36,15.43 -13.57,15.41 -13.76,15.31 -13.95,15.22 -14.11,15.07 -14.26,14.92 -14.35,14.74 -14.45,14.55 -14.48,14.34 -14.51,14.13 -14.48,13.92 -14.44,13.71 -14.44,13.71 -14.44,13.71 -13.65,11.16 -12.87,8.61 -11.19,6.58 -9.52,4.54 -7.26,2.88 -5.00,1.21 -2.41,0.18 0.17,-0.84 2.55,-1.15 4.93,-1.45 7.38,-1.45 9.82,-1.45 11.67,-0.88 13.52,-0.32 15.33,0.41 17.13,1.16 18.98,2.57 20.83,3.98 22.54,5.52 24.24,7.06 25.21,8.54 26.17,10.03 27.18,11.80 28.19,13.57 28.68,14.70 29.17,15.83 29.64,18.30 30.12,20.77 30.46,22.48 30.80,24.19 30.92,25.32 31.04,26.45 31.38,28.18 31.72,29.91 31.82,31.07 31.93,32.23 32.21,34.05 32.49,35.87 32.49,37.18 32.49,38.49 32.49,40.28 32.49,42.07 32.49,43.73 32.50,45.39 32.51,47.39 32.53,49.38 32.58,51.52 32.63,53.65 32.76,55.85 32.89,58.04 32.59,59.95 32.28,61.87 32.19,64.17 32.10,66.46 31.86,68.64 31.63,70.82 31.10,73.22 30.57,75.63 30.04,77.18 29.51,78.74 28.88,80.60 28.24,82.46 27.43,84.13 26.63,85.79 25.44,87.65 24.26,89.50 22.87,91.13 21.48,92.76 20.32,93.85 19.15,94.94 17.53,96.34 15.91,97.74 13.74,98.82 11.57,99.91 9.68,100.49 7.79,101.07 5.98,101.05 4.17,101.02 2.75,100.83 1.33,100.65 0.14,99.83 -1.05,99.01 -2.29,97.77 -3.53,96.53 -4.12,95.46 -4.71,94.40 -5.57,92.90 -6.43,91.41 -6.96,89.65 -7.49,87.89 -8.07,85.75 -8.65,83.62 -9.40,81.04 -10.15,78.46 -10.63,76.35 -11.12,74.23 -11.58,71.87 -12.05,69.50 -12.52,67.12 -12.99,64.74 -13.45,62.30 -13.92,59.85 -14.33,56.74 -14.74,53.62 -15.07,50.16 -15.41,46.69 -15.55,43.61 -15.70,40.54 -15.38,37.32 -15.07,34.10 -14.40,31.22 -13.73,28.35 -12.86,25.61 -11.98,22.87 -11.14,20.05 -10.30,17.23 -9.11,14.77 -7.92,12.31 -6.37,9.01 -4.83,5.71 -3.02,2.55 -1.21,-0.60 -1.12,-0.74 -1.03,-0.88 -0.91,-0.99 -0.79,-1.10 -0.64,-1.18 -0.50,-1.26 -0.34,-1.30 -0.19,-1.34 -0.02,-1.34 0.13,-1.35 0.29,-1.31 0.45,-1.27 0.60,-1.20 0.74,-1.13 0.87,-1.02 0.99,-0.92 1.09,-0.78 1.18,-0.65 1.25,-0.50 1.31,-0.35 1.33,-0.18 1.35,-0.02 1.34,0.13 1.32,0.29 1.26,0.45 1.21,0.60 1.21,0.60 L 1.21,0.60 Z"></path></g><g transform="translate(1126.9629706976166 4384.175847539904) rotate(0 8.4897768284726 41.50557560586685)" stroke="none"><path fill="#1e1e1e" d="M 0,1.32 Q 0,1.32 -0.56,1.53 -1.12,1.73 -2.05,3.15 -2.98,4.56 -4.00,6.45 -5.02,8.33 -6.30,10.81 -7.59,13.28 -8.66,15.65 -9.73,18.01 -10.41,20.52 -11.10,23.03 -11.66,25.72 -12.23,28.42 -12.47,30.57 -12.70,32.73 -12.80,35.78 -12.90,38.83 -12.94,41.50 -12.97,44.17 -12.99,46.12 -13.01,48.06 -12.74,50.68 -12.47,53.30 -12.35,56.15 -12.24,58.99 -11.92,60.87 -11.61,62.74 -11.19,65.50 -10.78,68.26 -10.35,70.16 -9.92,72.06 -9.25,73.53 -8.59,74.99 -7.77,76.42 -6.96,77.84 -5.30,79.32 -3.64,80.81 -1.11,81.83 1.40,82.85 3.24,83.53 5.09,84.21 7.06,84.10 9.03,84.00 10.77,83.41 12.52,82.81 14.33,82.03 16.13,81.25 17.31,80.45 18.48,79.66 19.95,78.08 21.41,76.50 22.55,74.81 23.68,73.13 24.70,71.34 25.72,69.55 26.64,67.26 27.55,64.97 28.18,62.21 28.81,59.45 29.08,56.98 29.34,54.52 29.45,52.13 29.55,49.74 29.60,47.64 29.65,45.54 29.40,42.87 29.14,40.19 29.03,37.87 28.91,35.54 28.60,33.62 28.29,31.69 27.64,29.32 26.98,26.96 26.19,24.93 25.40,22.91 24.60,21.64 23.80,20.38 23.09,18.84 22.37,17.30 21.23,16.19 20.08,15.09 18.30,13.81 16.52,12.54 14.28,11.51 12.03,10.49 10.15,10.08 8.26,9.68 5.02,9.17 1.78,8.67 -1.17,8.40 -4.12,8.13 -6.30,7.55 -8.48,6.97 -11.27,6.97 -14.05,6.96 -14.26,6.95 -14.48,6.93 -14.67,6.84 -14.86,6.75 -15.02,6.61 -15.18,6.47 -15.28,6.28 -15.38,6.09 -15.42,5.88 -15.46,5.68 -15.43,5.46 -15.40,5.25 -15.30,5.07 -15.20,4.88 -15.05,4.73 -14.90,4.58 -14.71,4.49 -14.52,4.39 -14.30,4.37 -14.09,4.34 -13.89,4.39 -13.68,4.43 -13.49,4.53 -13.31,4.64 -13.17,4.80 -13.03,4.96 -12.95,5.16 -12.87,5.35 -12.85,5.56 -12.84,5.78 -12.89,5.98 -12.94,6.19 -13.06,6.37 -13.18,6.54 -13.34,6.67 -13.51,6.81 -13.71,6.88 -13.91,6.95 -14.12,6.95 -14.34,6.95 -14.54,6.89 -14.74,6.82 -14.91,6.70 -15.08,6.57 -15.21,6.40 -15.33,6.22 -15.39,6.02 -15.45,5.82 -15.44,5.60 -15.43,5.39 -15.36,5.19 -15.28,4.99 -15.15,4.83 -15.01,4.67 -14.83,4.55 -14.65,4.44 -14.44,4.39 -14.24,4.34 -14.24,4.34 -14.24,4.34 -11.08,3.93 -7.92,3.51 -5.87,3.64 -3.83,3.78 -0.69,3.92 2.44,4.05 5.89,4.51 9.34,4.96 11.70,5.53 14.06,6.09 16.72,7.36 19.37,8.62 21.46,10.19 23.55,11.75 25.13,13.49 26.71,15.23 27.30,16.55 27.89,17.87 28.88,19.52 29.87,21.16 30.74,23.43 31.61,25.70 32.30,28.33 33.00,30.96 33.32,33.14 33.65,35.32 33.74,37.55 33.84,39.78 34.08,42.71 34.33,45.65 34.27,47.81 34.21,49.97 34.06,52.50 33.92,55.04 33.59,57.77 33.27,60.50 32.51,63.59 31.74,66.69 30.66,69.23 29.58,71.77 28.46,73.70 27.33,75.63 25.97,77.59 24.61,79.55 22.76,81.43 20.91,83.32 19.38,84.29 17.85,85.27 15.86,86.10 13.87,86.94 11.77,87.60 9.67,88.26 8.05,88.46 6.42,88.65 4.07,88.04 1.73,87.43 0.68,87.08 -0.35,86.72 -1.83,86.05 -3.30,85.37 -4.66,84.85 -6.02,84.34 -7.63,83.15 -9.25,81.96 -9.95,80.94 -10.65,79.91 -11.54,78.30 -12.43,76.69 -13.23,74.85 -14.02,73.00 -14.48,70.94 -14.94,68.88 -15.34,66.14 -15.74,63.40 -16.06,61.28 -16.38,59.16 -16.49,56.43 -16.60,53.70 -16.85,50.86 -17.11,48.02 -17.09,46.06 -17.07,44.10 -17.02,41.40 -16.96,38.69 -16.85,35.49 -16.74,32.28 -16.48,29.93 -16.21,27.57 -15.61,24.76 -15.01,21.94 -14.22,19.14 -13.43,16.34 -12.31,13.87 -11.19,11.40 -9.87,8.88 -8.55,6.36 -7.26,4.15 -5.98,1.94 -4.05,0.10 -2.12,-1.73 -1.06,-1.53 0,-1.32 0.15,-1.30 0.31,-1.28 0.46,-1.22 0.61,-1.17 0.74,-1.08 0.87,-0.99 0.98,-0.87 1.08,-0.75 1.16,-0.61 1.23,-0.46 1.27,-0.31 1.31,-0.15 1.31,0.00 1.31,0.15 1.27,0.31 1.23,0.46 1.16,0.61 1.08,0.75 0.98,0.87 0.87,0.99 0.74,1.08 0.61,1.17 0.46,1.22 0.31,1.28 0.15,1.30 -0.00,1.32 -0.00,1.32 L 0,1.32 Z"></path></g><g transform="translate(875.0995914529267 4392.6656243683765) rotate(0 128.76161523183578 1.4149628047457554)" stroke="none"><path fill="#1e1e1e" d="M 0.28,-1.28 Q 0.28,-1.28 2.77,-0.94 5.25,-0.61 7.89,-0.13 10.53,0.33 13.73,0.52 16.93,0.70 20.20,0.78 23.46,0.85 27.36,1.16 31.25,1.46 36.09,1.59 40.93,1.72 45.70,1.78 50.48,1.83 55.81,2.12 61.14,2.41 66.34,2.54 71.54,2.66 76.74,2.71 81.93,2.75 86.85,2.78 91.77,2.80 96.03,2.81 100.29,2.83 104.60,3.10 108.91,3.37 113.40,3.49 117.88,3.60 121.15,3.65 124.41,3.70 128.24,3.72 132.06,3.74 135.86,3.75 139.65,3.75 142.97,4.03 146.29,4.30 148.99,4.42 151.68,4.53 154.35,4.31 157.03,4.09 160.16,4.00 163.29,3.90 165.70,3.86 168.10,3.82 169.94,3.80 171.78,3.79 174.37,3.51 176.96,3.24 179.23,3.11 181.50,2.98 183.43,2.68 185.36,2.37 187.26,1.97 189.16,1.57 191.35,1.13 193.54,0.68 195.65,0.48 197.77,0.27 199.92,-0.06 202.07,-0.40 204.05,-0.82 206.03,-1.23 208.36,-1.43 210.70,-1.63 213.21,-1.97 215.73,-2.32 218.53,-2.47 221.32,-2.63 223.86,-2.69 226.40,-2.75 228.45,-3.05 230.49,-3.35 232.28,-3.48 234.07,-3.61 236.08,-3.93 238.10,-4.24 240.15,-4.40 242.20,-4.55 244.16,-4.62 246.12,-4.69 247.61,-4.97 249.10,-5.25 250.41,-5.39 251.72,-5.54 252.84,-5.60 253.95,-5.66 255.72,-5.37 257.49,-5.08 257.70,-5.05 257.91,-5.02 258.10,-4.93 258.29,-4.83 258.44,-4.68 258.59,-4.53 258.68,-4.34 258.78,-4.15 258.80,-3.94 258.83,-3.73 258.79,-3.52 258.75,-3.31 258.64,-3.13 258.54,-2.94 258.38,-2.80 258.22,-2.66 258.03,-2.58 257.83,-2.49 257.62,-2.48 257.41,-2.46 257.20,-2.51 256.99,-2.56 256.82,-2.68 256.64,-2.79 256.50,-2.96 256.37,-3.13 256.30,-3.33 256.23,-3.53 256.22,-3.74 256.22,-3.95 256.28,-4.15 256.34,-4.36 256.47,-4.53 256.59,-4.70 256.77,-4.82 256.94,-4.95 257.14,-5.01 257.35,-5.07 257.56,-5.06 257.77,-5.06 257.97,-4.98 258.17,-4.91 258.33,-4.77 258.50,-4.64 258.61,-4.46 258.73,-4.28 258.78,-4.08 258.83,-3.87 258.81,-3.66 258.79,-3.45 258.71,-3.25 258.62,-3.06 258.48,-2.90 258.34,-2.74 258.15,-2.64 257.97,-2.53 257.76,-2.49 257.55,-2.46 257.55,-2.46 257.55,-2.46 254.83,-2.04 252.12,-1.63 250.96,-1.52 249.80,-1.41 248.02,-1.10 246.25,-0.79 244.36,-0.74 242.47,-0.69 240.58,-0.57 238.69,-0.44 236.52,-0.11 234.35,0.21 232.68,0.33 231.02,0.45 228.76,0.75 226.50,1.05 224.01,1.11 221.53,1.18 218.89,1.32 216.24,1.46 213.62,1.81 211.00,2.16 208.90,2.32 206.80,2.47 204.73,2.90 202.66,3.33 200.39,3.69 198.12,4.05 196.21,4.22 194.30,4.40 192.12,4.84 189.94,5.28 187.95,5.70 185.95,6.11 183.83,6.45 181.70,6.79 179.52,6.90 177.35,7.01 174.58,7.29 171.82,7.57 169.99,7.59 168.17,7.61 165.79,7.65 163.40,7.69 160.37,7.78 157.33,7.87 154.42,8.09 151.52,8.32 148.75,8.20 145.97,8.08 142.81,7.81 139.64,7.54 135.84,7.52 132.04,7.50 128.20,7.48 124.36,7.46 121.07,7.41 117.78,7.36 113.23,7.24 108.67,7.12 104.48,6.84 100.28,6.56 96.02,6.56 91.75,6.56 86.82,6.54 81.89,6.51 76.67,6.45 71.45,6.39 66.19,6.27 60.93,6.14 55.68,5.84 50.44,5.54 45.63,5.48 40.83,5.43 35.89,5.29 30.95,5.16 27.16,4.84 23.36,4.53 20.03,4.42 16.69,4.32 13.29,4.07 9.88,3.83 7.19,3.31 4.50,2.78 2.10,2.03 -0.28,1.28 -0.43,1.23 -0.58,1.18 -0.71,1.09 -0.85,1.00 -0.95,0.89 -1.06,0.77 -1.14,0.63 -1.22,0.49 -1.26,0.34 -1.30,0.18 -1.30,0.03 -1.31,-0.12 -1.27,-0.28 -1.24,-0.43 -1.17,-0.58 -1.10,-0.72 -0.99,-0.84 -0.89,-0.96 -0.76,-1.06 -0.63,-1.15 -0.49,-1.21 -0.34,-1.27 -0.18,-1.29 -0.03,-1.31 0.12,-1.30 0.28,-1.28 0.28,-1.28 L 0.28,-1.28 Z"></path></g><g transform="translate(882.6460597449025 4496.429563383043) rotate(0 127.81830669533883 -11.791356706212355)" stroke="none"><path fill="#1e1e1e" d="M -0.78,-1.09 Q -0.78,-1.09 0.97,-2.67 2.72,-4.26 5.67,-5.25 8.63,-6.24 12.34,-6.90 16.05,-7.56 20.55,-8.38 25.06,-9.19 30.84,-9.82 36.62,-10.44 42.55,-11.25 48.47,-12.06 54.29,-12.68 60.10,-13.31 67.43,-14.11 74.77,-14.92 81.94,-15.81 89.12,-16.69 96.82,-17.35 104.52,-18.00 111.04,-18.55 117.55,-19.10 123.53,-19.87 129.51,-20.64 135.12,-20.98 140.73,-21.32 146.60,-21.73 152.47,-22.14 157.66,-22.59 162.86,-23.03 167.29,-23.22 171.71,-23.42 175.98,-23.76 180.24,-24.11 183.46,-24.27 186.68,-24.42 189.42,-24.48 192.15,-24.55 195.49,-24.57 198.82,-24.60 201.21,-24.88 203.61,-25.15 206.36,-25.28 209.12,-25.40 211.37,-25.46 213.62,-25.51 215.39,-25.53 217.16,-25.55 219.27,-25.56 221.38,-25.57 223.09,-25.57 224.80,-25.58 226.07,-25.58 227.34,-25.58 228.69,-25.59 230.05,-25.60 231.98,-25.59 233.91,-25.58 235.27,-25.58 236.64,-25.58 238.30,-25.59 239.97,-25.60 241.66,-25.30 243.36,-25.01 244.98,-24.91 246.60,-24.81 248.78,-24.48 250.96,-24.15 253.36,-23.57 255.76,-23.00 255.96,-22.94 256.17,-22.89 256.34,-22.77 256.52,-22.66 256.65,-22.49 256.78,-22.32 256.85,-22.12 256.92,-21.92 256.93,-21.71 256.93,-21.50 256.87,-21.29 256.80,-21.09 256.67,-20.92 256.55,-20.75 256.37,-20.63 256.20,-20.51 256.00,-20.45 255.79,-20.39 255.58,-20.40 255.37,-20.40 255.17,-20.48 254.97,-20.56 254.81,-20.69 254.64,-20.83 254.53,-21.01 254.42,-21.19 254.37,-21.40 254.32,-21.60 254.34,-21.81 254.36,-22.03 254.45,-22.22 254.53,-22.41 254.68,-22.57 254.82,-22.73 255.01,-22.83 255.20,-22.93 255.40,-22.97 255.61,-23.00 255.82,-22.97 256.03,-22.94 256.22,-22.84 256.41,-22.75 256.56,-22.59 256.71,-22.44 256.80,-22.25 256.89,-22.06 256.92,-21.85 256.94,-21.64 256.90,-21.43 256.86,-21.22 256.75,-21.04 256.64,-20.85 256.48,-20.71 256.32,-20.57 256.13,-20.49 255.93,-20.41 255.72,-20.40 255.51,-20.38 255.51,-20.38 255.51,-20.38 252.93,-20.28 250.35,-20.18 248.34,-20.49 246.34,-20.80 244.50,-20.93 242.66,-21.06 241.31,-21.31 239.96,-21.56 238.30,-21.56 236.64,-21.57 235.27,-21.57 233.91,-21.57 231.98,-21.56 230.05,-21.56 228.70,-21.56 227.35,-21.57 226.08,-21.57 224.81,-21.57 223.11,-21.56 221.40,-21.56 219.30,-21.55 217.21,-21.54 215.46,-21.52 213.71,-21.50 211.50,-21.45 209.30,-21.40 206.68,-21.28 204.06,-21.17 201.46,-20.88 198.86,-20.59 195.55,-20.56 192.24,-20.54 189.56,-20.47 186.87,-20.41 183.72,-20.26 180.57,-20.12 176.23,-19.76 171.89,-19.41 167.54,-19.22 163.20,-19.03 157.97,-18.59 152.75,-18.14 146.85,-17.73 140.96,-17.32 135.49,-17.00 130.01,-16.68 123.95,-15.90 117.88,-15.13 111.37,-14.58 104.86,-14.03 97.23,-13.40 89.60,-12.76 82.40,-11.88 75.20,-10.99 67.86,-10.19 60.51,-9.40 54.75,-8.80 49.00,-8.19 43.02,-7.39 37.04,-6.59 31.39,-5.99 25.74,-5.38 21.23,-4.58 16.72,-3.77 13.25,-3.17 9.77,-2.57 7.32,-1.86 4.87,-1.15 2.82,-0.03 0.78,1.09 0.63,1.17 0.49,1.24 0.33,1.28 0.18,1.33 0.02,1.33 -0.14,1.33 -0.29,1.29 -0.45,1.26 -0.60,1.19 -0.74,1.11 -0.86,1.01 -0.99,0.90 -1.08,0.77 -1.17,0.64 -1.23,0.49 -1.29,0.34 -1.32,0.18 -1.34,0.02 -1.32,-0.13 -1.30,-0.30 -1.25,-0.45 -1.19,-0.60 -1.10,-0.73 -1.01,-0.87 -0.90,-0.98 -0.78,-1.09 -0.78,-1.09 L -0.78,-1.09 Z"></path></g><g transform="translate(1180.7315572779435 4423.794806072777) rotate(0 108.00882742890269 -17.451207925194012)" stroke="none"><path fill="#1e1e1e" d="M -0.21,1.30 Q -0.21,1.30 -1.89,1.31 -3.56,1.32 -3.78,1.26 -4.00,1.19 -4.20,1.08 -4.39,0.96 -4.56,0.80 -4.72,0.64 -4.84,0.45 -4.96,0.26 -5.04,0.04 -5.11,-0.17 -5.12,-0.39 -5.14,-0.62 -5.10,-0.85 -5.07,-1.07 -4.98,-1.28 -4.89,-1.49 -4.75,-1.67 -4.61,-1.86 -4.43,-2.00 -4.26,-2.14 -4.05,-2.24 -3.84,-2.34 -3.62,-2.38 -3.39,-2.43 -3.17,-2.42 -2.94,-2.41 -1.41,-2.57 0.11,-2.74 2.70,-3.05 5.29,-3.36 10.75,-4.04 16.20,-4.71 21.03,-5.01 25.85,-5.30 30.79,-5.96 35.73,-6.62 42.72,-7.71 49.70,-8.79 55.65,-9.80 61.60,-10.80 67.95,-11.78 74.29,-12.76 82.93,-14.27 91.57,-15.78 99.05,-16.97 106.54,-18.16 113.77,-19.47 120.99,-20.78 127.89,-21.88 134.78,-22.99 142.58,-24.28 150.38,-25.56 157.23,-26.65 164.08,-27.74 170.23,-28.74 176.39,-29.75 182.03,-30.45 187.67,-31.15 193.00,-31.99 198.34,-32.82 202.24,-33.45 206.14,-34.08 208.95,-34.35 211.76,-34.63 213.34,-34.99 214.93,-35.36 216.29,-35.54 217.65,-35.72 219.30,-35.86 220.95,-36.00 221.15,-36.08 221.34,-36.17 221.55,-36.19 221.77,-36.21 221.97,-36.16 222.18,-36.11 222.36,-36.00 222.54,-35.88 222.67,-35.72 222.81,-35.56 222.88,-35.36 222.96,-35.16 222.97,-34.95 222.98,-34.73 222.92,-34.53 222.86,-34.33 222.73,-34.15 222.61,-33.98 222.44,-33.85 222.27,-33.73 222.07,-33.66 221.86,-33.60 221.65,-33.60 221.44,-33.61 221.24,-33.68 221.04,-33.75 220.87,-33.88 220.70,-34.01 220.59,-34.19 220.47,-34.37 220.42,-34.57 220.36,-34.78 220.38,-34.99 220.39,-35.20 220.48,-35.40 220.56,-35.59 220.70,-35.75 220.84,-35.91 221.02,-36.02 221.21,-36.13 221.42,-36.17 221.62,-36.21 221.83,-36.18 222.04,-36.16 222.24,-36.06 222.43,-35.97 222.58,-35.82 222.73,-35.67 222.83,-35.49 222.92,-35.30 222.95,-35.09 222.99,-34.88 222.95,-34.67 222.91,-34.46 222.81,-34.27 222.70,-34.09 222.55,-33.94 222.39,-33.80 222.39,-33.80 222.39,-33.80 220.28,-32.75 218.17,-31.71 216.99,-31.56 215.82,-31.41 213.98,-31.01 212.15,-30.61 209.47,-30.35 206.78,-30.09 202.87,-29.46 198.96,-28.83 193.57,-27.99 188.17,-27.14 182.61,-26.45 177.04,-25.76 170.88,-24.75 164.71,-23.75 157.87,-22.66 151.04,-21.58 143.23,-20.30 135.42,-19.03 128.56,-17.93 121.71,-16.83 114.44,-15.51 107.17,-14.19 99.71,-13.02 92.24,-11.85 83.57,-10.37 74.89,-8.88 68.57,-7.92 62.25,-6.96 56.28,-5.95 50.31,-4.94 43.27,-3.83 36.24,-2.72 31.17,-2.05 26.09,-1.38 21.39,-1.10 16.69,-0.82 11.22,-0.14 5.76,0.53 3.06,0.86 0.37,1.20 -1.59,1.26 -3.56,1.32 -3.78,1.26 -4.00,1.19 -4.20,1.08 -4.39,0.96 -4.56,0.80 -4.72,0.64 -4.84,0.45 -4.96,0.26 -5.04,0.04 -5.11,-0.17 -5.12,-0.39 -5.14,-0.62 -5.10,-0.85 -5.07,-1.07 -4.98,-1.28 -4.89,-1.49 -4.75,-1.67 -4.61,-1.86 -4.43,-2.00 -4.26,-2.14 -4.05,-2.24 -3.84,-2.34 -3.62,-2.38 -3.39,-2.43 -3.17,-2.42 -2.94,-2.41 -1.36,-1.86 0.21,-1.30 0.37,-1.26 0.52,-1.21 0.66,-1.13 0.80,-1.05 0.91,-0.94 1.03,-0.83 1.11,-0.69 1.20,-0.56 1.25,-0.41 1.30,-0.26 1.31,-0.10 1.32,0.05 1.29,0.21 1.27,0.37 1.21,0.52 1.14,0.66 1.05,0.79 0.95,0.92 0.82,1.02 0.70,1.12 0.55,1.19 0.41,1.26 0.25,1.29 0.10,1.32 -0.05,1.31 -0.21,1.30 -0.21,1.30 L -0.21,1.30 Z"></path></g><g stroke-linecap="round" transform="translate(1415.615382865688 4292.6749194997) rotate(0 163.66403108222357 133.4781579143205)"><path d="M32 0 C113.27 0, 194.54 0, 295.33 0 M32 0 C85.65 0, 139.31 0, 295.33 0 M295.33 0 C316.66 0, 327.33 10.67, 327.33 32 M295.33 0 C316.66 0, 327.33 10.67, 327.33 32 M327.33 32 C327.33 107.66, 327.33 183.32, 327.33 234.96 M327.33 32 C327.33 86.1, 327.33 140.2, 327.33 234.96 M327.33 234.96 C327.33 256.29, 316.66 266.96, 295.33 266.96 M327.33 234.96 C327.33 256.29, 316.66 266.96, 295.33 266.96 M295.33 266.96 C201.28 266.96, 107.23 266.96, 32 266.96 M295.33 266.96 C191.75 266.96, 88.17 266.96, 32 266.96 M32 266.96 C10.67 266.96, 0 256.29, 0 234.96 M32 266.96 C10.67 266.96, 0 256.29, 0 234.96 M0 234.96 C0 175.37, 0 115.79, 0 32 M0 234.96 C0 167.65, 0 100.35, 0 32 M0 32 C0 10.67, 10.67 0, 32 0 M0 32 C0 10.67, 10.67 0, 32 0" stroke="#1e1e1e" stroke-width="1" fill="none"></path></g><g transform="translate(1437.3114792051183 4404.928635342838) rotate(0 144.78334045410156 22.5)"><text x="0" y="31.536" font-family="Virgil, Segoe UI Emoji" font-size="36px" fill="#1e1e1e" text-anchor="start" style="white-space: pre;" direction="ltr" dominant-baseline="alphabetic">Question Service</text></g><g transform="translate(874.1562829164297 4334.180495105565) rotate(0 118.68333435058594 22.5)"><text x="0" y="31.536" font-family="Virgil, Segoe UI Emoji" font-size="36px" fill="#1e1e1e" text-anchor="start" style="white-space: pre;" direction="ltr" dominant-baseline="alphabetic">Kafka Broker</text></g><g transform="translate(233.64978663499005 4226.643321944911) rotate(0 183.6999969482422 22.5)"><text x="0" y="31.536" font-family="Virgil, Segoe UI Emoji" font-size="36px" fill="#1e1e1e" text-anchor="start" style="white-space: pre;" direction="ltr" dominant-baseline="alphabetic">Kafa Pub-Sub Model:</text></g></svg>